<mxfile host="app.diagrams.net" modified="2023-11-20T12:21:09.155Z" agent="Mozilla/5.0 (Windows NT 10.0; Win64; x64) AppleWebKit/537.36 (KHTML, like Gecko) Chrome/119.0.0.0 Safari/537.36 Edg/119.0.0.0" etag="57P1aRB5CpGNQjHb6Pp8" version="22.1.3" type="github">
  <diagram id="6a731a19-8d31-9384-78a2-239565b7b9f0" name="Page-1">
    <mxGraphModel dx="722" dy="473" grid="1" gridSize="10" guides="1" tooltips="1" connect="1" arrows="1" fold="1" page="1" pageScale="1" pageWidth="1169" pageHeight="827" background="none" math="0" shadow="0">
      <root>
        <mxCell id="0" />
        <mxCell id="1" parent="0" />
        <mxCell id="2" value="上电或休眠后启动" style="shape=mxgraph.flowchart.terminator;strokeWidth=2;gradientColor=none;gradientDirection=north;fontStyle=0;html=1;" parent="1" vertex="1">
          <mxGeometry x="260" y="60" width="120" height="30" as="geometry" />
        </mxCell>
        <mxCell id="7" style="fontStyle=1;strokeColor=#003366;strokeWidth=1;html=1;" parent="1" source="2" edge="1">
          <mxGeometry relative="1" as="geometry">
            <mxPoint x="320" y="130" as="targetPoint" />
          </mxGeometry>
        </mxCell>
        <mxCell id="11" value="是" style="text;fontStyle=0;html=1;strokeColor=none;gradientColor=none;fillColor=none;strokeWidth=2;" parent="1" vertex="1">
          <mxGeometry x="329" y="440" width="21" height="26" as="geometry" />
        </mxCell>
        <mxCell id="14" value="否" style="text;fontStyle=0;html=1;strokeColor=none;gradientColor=none;fillColor=none;strokeWidth=2;align=center;" parent="1" vertex="1">
          <mxGeometry x="450" y="330" width="40" height="26" as="geometry" />
        </mxCell>
        <mxCell id="Wo_HQYN4C6-j4O0YQd7i-58" value="" style="edgeStyle=orthogonalEdgeStyle;rounded=0;orthogonalLoop=1;jettySize=auto;html=1;" edge="1" parent="1" source="Wo_HQYN4C6-j4O0YQd7i-55" target="Wo_HQYN4C6-j4O0YQd7i-57">
          <mxGeometry relative="1" as="geometry">
            <Array as="points">
              <mxPoint x="320" y="200" />
              <mxPoint x="320" y="200" />
            </Array>
          </mxGeometry>
        </mxCell>
        <mxCell id="Wo_HQYN4C6-j4O0YQd7i-55" value="从物联平台或取参数：SleepTime，AppointmentTime" style="rounded=1;whiteSpace=wrap;html=1;" vertex="1" parent="1">
          <mxGeometry x="265" y="130" width="120" height="60" as="geometry" />
        </mxCell>
        <mxCell id="Wo_HQYN4C6-j4O0YQd7i-83" value="" style="edgeStyle=orthogonalEdgeStyle;rounded=0;orthogonalLoop=1;jettySize=auto;html=1;" edge="1" parent="1" source="Wo_HQYN4C6-j4O0YQd7i-57" target="Wo_HQYN4C6-j4O0YQd7i-82">
          <mxGeometry relative="1" as="geometry">
            <Array as="points">
              <mxPoint x="320" y="280" />
              <mxPoint x="320" y="280" />
            </Array>
          </mxGeometry>
        </mxCell>
        <mxCell id="Wo_HQYN4C6-j4O0YQd7i-57" value="设置获取的休眠时间(SleepTime)，立即生效" style="rounded=1;whiteSpace=wrap;html=1;" vertex="1" parent="1">
          <mxGeometry x="265" y="210" width="120" height="50" as="geometry" />
        </mxCell>
        <mxCell id="Wo_HQYN4C6-j4O0YQd7i-73" value="" style="edgeStyle=orthogonalEdgeStyle;rounded=0;orthogonalLoop=1;jettySize=auto;html=1;" edge="1" parent="1" source="Wo_HQYN4C6-j4O0YQd7i-62" target="Wo_HQYN4C6-j4O0YQd7i-72">
          <mxGeometry relative="1" as="geometry" />
        </mxCell>
        <mxCell id="Wo_HQYN4C6-j4O0YQd7i-62" value="联网工作" style="rounded=1;whiteSpace=wrap;html=1;" vertex="1" parent="1">
          <mxGeometry x="240" y="480" width="160" height="40" as="geometry" />
        </mxCell>
        <mxCell id="Wo_HQYN4C6-j4O0YQd7i-68" value="" style="endArrow=classic;html=1;rounded=0;entryX=1;entryY=0.5;entryDx=0;entryDy=0;entryPerimeter=0;exitX=0.5;exitY=0;exitDx=0;exitDy=0;" edge="1" parent="1" source="Wo_HQYN4C6-j4O0YQd7i-85" target="2">
          <mxGeometry width="50" height="50" relative="1" as="geometry">
            <mxPoint x="605" y="280" as="sourcePoint" />
            <mxPoint x="410" y="190" as="targetPoint" />
            <Array as="points">
              <mxPoint x="605" y="75" />
            </Array>
          </mxGeometry>
        </mxCell>
        <mxCell id="Wo_HQYN4C6-j4O0YQd7i-69" value="否" style="text;fontStyle=0;html=1;strokeColor=none;gradientColor=none;fillColor=none;strokeWidth=2;" vertex="1" parent="1">
          <mxGeometry x="585" y="294" width="21" height="26" as="geometry" />
        </mxCell>
        <mxCell id="Wo_HQYN4C6-j4O0YQd7i-70" value="是" style="text;fontStyle=0;html=1;strokeColor=none;gradientColor=none;fillColor=none;strokeWidth=2;" vertex="1" parent="1">
          <mxGeometry x="585" y="410" width="21" height="26" as="geometry" />
        </mxCell>
        <mxCell id="Wo_HQYN4C6-j4O0YQd7i-79" value="" style="edgeStyle=orthogonalEdgeStyle;rounded=0;orthogonalLoop=1;jettySize=auto;html=1;" edge="1" parent="1" source="Wo_HQYN4C6-j4O0YQd7i-72" target="Wo_HQYN4C6-j4O0YQd7i-78">
          <mxGeometry relative="1" as="geometry" />
        </mxCell>
        <mxCell id="Wo_HQYN4C6-j4O0YQd7i-72" value="1. 周期上报设备温度，&lt;br&gt;电池电压&lt;br&gt;2. 等待订单" style="rounded=1;whiteSpace=wrap;html=1;" vertex="1" parent="1">
          <mxGeometry x="240" y="550" width="160" height="80" as="geometry" />
        </mxCell>
        <mxCell id="Wo_HQYN4C6-j4O0YQd7i-93" value="" style="edgeStyle=orthogonalEdgeStyle;rounded=0;orthogonalLoop=1;jettySize=auto;html=1;" edge="1" parent="1" source="Wo_HQYN4C6-j4O0YQd7i-74" target="Wo_HQYN4C6-j4O0YQd7i-92">
          <mxGeometry relative="1" as="geometry" />
        </mxCell>
        <mxCell id="Wo_HQYN4C6-j4O0YQd7i-74" value="订单逻辑：&lt;br&gt;1. 间隔上报余额，电量参数，设备温度，电池电压等状态&lt;br&gt;2. 收到相同ID订单追加余额，不同ID订单丢弃" style="rounded=1;whiteSpace=wrap;html=1;" vertex="1" parent="1">
          <mxGeometry x="525" y="680" width="160" height="140" as="geometry" />
        </mxCell>
        <mxCell id="Wo_HQYN4C6-j4O0YQd7i-88" value="" style="edgeStyle=orthogonalEdgeStyle;rounded=0;orthogonalLoop=1;jettySize=auto;html=1;" edge="1" parent="1" source="Wo_HQYN4C6-j4O0YQd7i-78" target="Wo_HQYN4C6-j4O0YQd7i-74">
          <mxGeometry relative="1" as="geometry" />
        </mxCell>
        <mxCell id="Wo_HQYN4C6-j4O0YQd7i-98" value="" style="edgeStyle=orthogonalEdgeStyle;rounded=0;orthogonalLoop=1;jettySize=auto;html=1;" edge="1" parent="1" source="Wo_HQYN4C6-j4O0YQd7i-78" target="Wo_HQYN4C6-j4O0YQd7i-97">
          <mxGeometry relative="1" as="geometry" />
        </mxCell>
        <mxCell id="Wo_HQYN4C6-j4O0YQd7i-78" value="收到订单？" style="rhombus;whiteSpace=wrap;html=1;rounded=1;" vertex="1" parent="1">
          <mxGeometry x="240" y="710" width="160" height="80" as="geometry" />
        </mxCell>
        <mxCell id="Wo_HQYN4C6-j4O0YQd7i-84" value="" style="edgeStyle=orthogonalEdgeStyle;rounded=0;orthogonalLoop=1;jettySize=auto;html=1;" edge="1" parent="1" source="Wo_HQYN4C6-j4O0YQd7i-82" target="Wo_HQYN4C6-j4O0YQd7i-62">
          <mxGeometry relative="1" as="geometry" />
        </mxCell>
        <mxCell id="Wo_HQYN4C6-j4O0YQd7i-86" value="" style="edgeStyle=orthogonalEdgeStyle;rounded=0;orthogonalLoop=1;jettySize=auto;html=1;" edge="1" parent="1" source="Wo_HQYN4C6-j4O0YQd7i-82" target="Wo_HQYN4C6-j4O0YQd7i-85">
          <mxGeometry relative="1" as="geometry" />
        </mxCell>
        <mxCell id="Wo_HQYN4C6-j4O0YQd7i-82" value="比较当前时间与预约时间&lt;br style=&quot;border-color: var(--border-color);&quot;&gt;&lt;span style=&quot;&quot;&gt;(AppointmentTime)&lt;/span&gt;&lt;br style=&quot;border-color: var(--border-color);&quot;&gt;&lt;span style=&quot;&quot;&gt;是否在预约时间前30分钟内？&lt;/span&gt;" style="rhombus;whiteSpace=wrap;html=1;rounded=1;" vertex="1" parent="1">
          <mxGeometry x="190" y="310" width="260" height="100" as="geometry" />
        </mxCell>
        <mxCell id="Wo_HQYN4C6-j4O0YQd7i-85" value="是否有未完成订单？" style="rhombus;whiteSpace=wrap;html=1;rounded=1;" vertex="1" parent="1">
          <mxGeometry x="510" y="320" width="190" height="80" as="geometry" />
        </mxCell>
        <mxCell id="Wo_HQYN4C6-j4O0YQd7i-89" value="" style="endArrow=classic;html=1;rounded=0;exitX=0.5;exitY=1;exitDx=0;exitDy=0;entryX=0.5;entryY=0;entryDx=0;entryDy=0;" edge="1" parent="1" source="Wo_HQYN4C6-j4O0YQd7i-85" target="Wo_HQYN4C6-j4O0YQd7i-74">
          <mxGeometry width="50" height="50" relative="1" as="geometry">
            <mxPoint x="510" y="620" as="sourcePoint" />
            <mxPoint x="560" y="570" as="targetPoint" />
          </mxGeometry>
        </mxCell>
        <mxCell id="Wo_HQYN4C6-j4O0YQd7i-92" value="余额不足？" style="rhombus;whiteSpace=wrap;html=1;rounded=1;" vertex="1" parent="1">
          <mxGeometry x="530" y="850" width="150" height="80" as="geometry" />
        </mxCell>
        <mxCell id="Wo_HQYN4C6-j4O0YQd7i-94" value="是" style="text;fontStyle=0;html=1;strokeColor=none;gradientColor=none;fillColor=none;strokeWidth=2;" vertex="1" parent="1">
          <mxGeometry x="400" y="720" width="21" height="26" as="geometry" />
        </mxCell>
        <mxCell id="Wo_HQYN4C6-j4O0YQd7i-96" value="" style="edgeStyle=elbowEdgeStyle;elbow=vertical;endArrow=classic;html=1;curved=0;rounded=0;endSize=8;startSize=8;entryX=0;entryY=0.5;entryDx=0;entryDy=0;entryPerimeter=0;exitX=0;exitY=0.5;exitDx=0;exitDy=0;" edge="1" parent="1" source="Wo_HQYN4C6-j4O0YQd7i-97" target="2">
          <mxGeometry width="50" height="50" relative="1" as="geometry">
            <mxPoint x="230" y="770" as="sourcePoint" />
            <mxPoint x="170" y="80" as="targetPoint" />
            <Array as="points">
              <mxPoint x="160" y="850" />
            </Array>
          </mxGeometry>
        </mxCell>
        <mxCell id="Wo_HQYN4C6-j4O0YQd7i-97" value="超过预约时间+10分钟？" style="rhombus;whiteSpace=wrap;html=1;rounded=1;" vertex="1" parent="1">
          <mxGeometry x="240" y="820" width="160" height="80" as="geometry" />
        </mxCell>
        <mxCell id="Wo_HQYN4C6-j4O0YQd7i-99" value="是" style="text;fontStyle=0;html=1;strokeColor=none;gradientColor=none;fillColor=none;strokeWidth=2;" vertex="1" parent="1">
          <mxGeometry x="200" y="830" width="21" height="26" as="geometry" />
        </mxCell>
        <mxCell id="Wo_HQYN4C6-j4O0YQd7i-100" value="否" style="text;fontStyle=0;html=1;strokeColor=none;gradientColor=none;fillColor=none;strokeWidth=2;align=center;" vertex="1" parent="1">
          <mxGeometry x="319.5" y="790" width="40" height="26" as="geometry" />
        </mxCell>
        <mxCell id="Wo_HQYN4C6-j4O0YQd7i-101" value="" style="edgeStyle=elbowEdgeStyle;elbow=vertical;endArrow=classic;html=1;curved=0;rounded=0;endSize=8;startSize=8;exitX=1;exitY=0.5;exitDx=0;exitDy=0;entryX=1;entryY=0.5;entryDx=0;entryDy=0;" edge="1" parent="1" source="Wo_HQYN4C6-j4O0YQd7i-97" target="Wo_HQYN4C6-j4O0YQd7i-62">
          <mxGeometry width="50" height="50" relative="1" as="geometry">
            <mxPoint x="520" y="843" as="sourcePoint" />
            <mxPoint x="420" y="623" as="targetPoint" />
            <Array as="points">
              <mxPoint x="450" y="620" />
              <mxPoint x="420" y="860" />
            </Array>
          </mxGeometry>
        </mxCell>
        <mxCell id="Wo_HQYN4C6-j4O0YQd7i-103" value="" style="endArrow=none;html=1;rounded=0;entryX=0.5;entryY=1;entryDx=0;entryDy=0;" edge="1" parent="1" target="Wo_HQYN4C6-j4O0YQd7i-92">
          <mxGeometry width="50" height="50" relative="1" as="geometry">
            <mxPoint x="160" y="860" as="sourcePoint" />
            <mxPoint x="530" y="860" as="targetPoint" />
            <Array as="points">
              <mxPoint x="160" y="960" />
              <mxPoint x="605" y="960" />
            </Array>
          </mxGeometry>
        </mxCell>
        <mxCell id="Wo_HQYN4C6-j4O0YQd7i-104" value="是" style="text;fontStyle=0;html=1;strokeColor=none;gradientColor=none;fillColor=none;strokeWidth=2;" vertex="1" parent="1">
          <mxGeometry x="574" y="930" width="21" height="26" as="geometry" />
        </mxCell>
        <mxCell id="Wo_HQYN4C6-j4O0YQd7i-105" value="" style="edgeStyle=elbowEdgeStyle;elbow=horizontal;endArrow=classic;html=1;curved=0;rounded=0;endSize=8;startSize=8;entryX=1;entryY=0.5;entryDx=0;entryDy=0;" edge="1" parent="1" source="Wo_HQYN4C6-j4O0YQd7i-92" target="Wo_HQYN4C6-j4O0YQd7i-74">
          <mxGeometry width="50" height="50" relative="1" as="geometry">
            <mxPoint x="710" y="780" as="sourcePoint" />
            <mxPoint x="760" y="730" as="targetPoint" />
            <Array as="points">
              <mxPoint x="750" y="810" />
            </Array>
          </mxGeometry>
        </mxCell>
      </root>
    </mxGraphModel>
  </diagram>
</mxfile>
